<?xml version="1.0" encoding="UTF-8"?>
<svg version="1.1" viewBox="0 0 1e3 117.64" xmlns="http://www.w3.org/2000/svg" xmlns:cc="http://creativecommons.org/ns#" xmlns:dc="http://purl.org/dc/elements/1.1/" xmlns:rdf="http://www.w3.org/1999/02/22-rdf-syntax-ns#">
 <metadata>
  <rdf:RDF>
   <cc:Work rdf:about="">
    <dc:format>image/svg+xml</dc:format>
    <dc:type rdf:resource="http://purl.org/dc/dcmitype/StillImage"/>
    <dc:title/>
   </cc:Work>
  </rdf:RDF>
 </metadata>
 <g id="XMLID_174_" transform="matrix(4.1384 0 0 4.1384 .49999 1.2686)" fill="#fff">
  <path id="XMLID_193_" d="m24 27.5-9.1-6-14 6 8.3-9.7-9.2-6h14.3l9.7-11.4v11.4h13.8l-13.8 5.9z"/>
  <path id="XMLID_192_" d="m41.2 6c0.5 0 0.9-0.4 0.9-0.9v-3.8c0-0.5-0.4-0.9-0.9-0.9h-14.9v5.6h14.9z"/>
  <path id="XMLID_191_" d="m41.2 27.5c0.5 0 0.9-0.4 0.9-0.9v-3.8c0-0.5-0.4-0.9-0.9-0.9h-14.9v5.6h14.9z"/>
  <path id="XMLID_190_" d="m240.4 0.4h-18.5c-0.5 0-0.9 0.4-0.9 0.9v3.8c0 0.5 0.4 0.9 0.9 0.9h6.5v20.7c0 0.5 0.4 0.9 0.9 0.9h3.8c0.5 0 0.9-0.4 0.9-0.9v-20.7h6.5c0.5 0 0.9-0.4 0.9-0.9v-3.8c-0.1-0.5-0.5-0.9-1-0.9z"/>
  <path id="XMLID_187_" d="m166.5 6.5c-0.4-1.2-1.1-2.3-2-3.2s-1.9-1.6-3.1-2.1-2.6-0.8-4.1-0.8h-10.1c-0.5 0-0.9 0.4-0.9 0.9v25.4c0 0.5 0.4 0.9 0.9 0.9h3.8c0.5 0 0.9-0.4 0.9-0.9v-6.5h5.4c1.5 0 2.9-0.3 4.1-0.8s2.2-1.2 3.1-2.1 1.5-1.9 2-3.1c0.4-1.2 0.7-2.6 0.7-3.9-0.1-1.4-0.3-2.6-0.7-3.8zm-5.3 5.5c-0.2 0.5-0.5 1-0.8 1.4-0.4 0.4-0.8 0.6-1.2 0.8-0.5 0.2-1.3 0.3-3 0.3h-4.3v-8.5h5.6c0.6 0 1.2 0.1 1.6 0.3 0.5 0.2 0.9 0.5 1.3 0.9 0.3 0.4 0.6 0.8 0.8 1.3s0.3 1.1 0.3 1.8c0 0.6-0.1 1.2-0.3 1.7z"/>
  <path id="XMLID_186_" d="m128.5 8.2c0 0.6 0.1 0.9 0.3 1.2s0.6 0.6 1 0.9c0.5 0.2 1 0.4 1.7 0.6s1.4 0.3 2.1 0.4c1.3 0.2 2.6 0.5 3.8 0.8 1.3 0.3 2.4 0.8 3.4 1.4s1.8 1.5 2.3 2.5c0.6 1.1 0.8 2.4 0.8 4-0.1 1.5-0.5 2.9-1.2 3.9s-1.6 1.9-2.7 2.5-2.1 1.1-3.4 1.3-2.7 0.3-3.9 0.3c-3.1-0.1-7.6-1.9-9.9-5-0.2-0.3-0.4-0.7 0.1-1.2s2.8-2.9 2.8-2.9c0.5-0.5 0.9-0.1 1.1 0.1 1.3 2 4 3.4 6.1 3.5 1.1 0 1.2 0 1.9-0.1 0.6-0.1 1.2-0.2 1.7-0.5 0.5-0.2 0.9-0.5 1.2-0.9s0.5-0.9 0.5-1.5-0.1-1.1-0.4-1.4c-0.3-0.4-0.7-0.7-1.2-1s-1.2-0.5-1.9-0.6-1.5-0.3-2.2-0.4c-1.2-0.2-2.4-0.4-3.5-0.7-1.2-0.3-2.2-0.8-3.1-1.4s-1.7-1.4-2.2-2.4c-0.6-1-0.8-2.1-0.8-3.6 0.1-1.4 0.4-2.7 1.1-3.8 0.6-1 1.5-1.9 2.5-2.6 1-0.6 2.1-1.1 3.4-1.4 2.4-0.6 4.9-0.5 7.3 0.3 2.6 0.8 4.7 2.8 5.7 4.2 0.2 0.3 0.4 0.7 0 1.1l-2.7 2.7c-0.5 0.5-1 0.4-1.3-0.1-1.4-2.1-3.2-3-5.3-3.1-2.4 0-5 0.5-5.1 2.9z"/>
  <path id="XMLID_183_" d="m116.9 3.7c-1.3-1.2-2.7-2.1-4.4-2.7s-3.4-0.9-5.3-0.9c-1.8 0-3.6 0.3-5.2 0.9-1.7 0.6-3.2 1.5-4.4 2.7-1.3 1.2-2.3 2.7-3 4.4s-1.1 3.7-1.1 5.9 0.4 4.2 1.1 5.9 1.7 3.2 3 4.4 2.7 2.1 4.4 2.7 3.4 0.9 5.3 0.9c2 0 3.9-0.3 5.6-1s3.2-1.6 4.4-2.9c1.2-1.2 2.2-2.7 2.9-4.4s1-3.6 1-5.7c0-2.2-0.4-4.2-1.1-5.9-0.9-1.6-2-3.1-3.2-4.3zm-2.2 14.1c-0.4 1-1 1.9-1.7 2.6s-1.6 1.2-2.6 1.6-2 0.5-3.2 0.5c-1.1 0-2.2-0.2-3.2-0.5-1-0.4-1.8-0.9-2.5-1.6s-1.3-1.6-1.7-2.6c-0.4-1.1-0.7-2.3-0.7-3.7s0.2-2.7 0.7-3.7c0.4-1.1 1-1.9 1.7-2.6s1.6-1.2 2.6-1.6 2.1-0.6 3.2-0.6 2.2 0.2 3.2 0.6 1.8 0.9 2.5 1.6 1.3 1.6 1.7 2.7 0.7 2.3 0.7 3.7c-0.1 1.2-0.3 2.5-0.7 3.6z"/>
  <path id="XMLID_180_" d="m192.5 3.7c-1.3-1.2-2.7-2.1-4.4-2.7s-3.4-0.9-5.3-0.9c-1.8 0-3.6 0.3-5.2 0.9-1.7 0.6-3.2 1.5-4.4 2.7-1.3 1.2-2.3 2.7-3 4.4s-1.1 3.7-1.1 5.9 0.4 4.2 1.1 5.9 1.7 3.2 3 4.4 2.7 2.1 4.4 2.7 3.4 0.9 5.3 0.9c2 0 3.9-0.3 5.6-1s3.2-1.6 4.4-2.9c1.2-1.2 2.2-2.7 2.9-4.4s1-3.6 1-5.7c0-2.2-0.4-4.2-1.1-5.9-0.9-1.6-1.9-3.1-3.2-4.3zm-2.2 14.1c-0.4 1-1 1.9-1.7 2.6s-1.6 1.2-2.6 1.6-2 0.5-3.2 0.5c-1.1 0-2.2-0.2-3.2-0.5-1-0.4-1.8-0.9-2.5-1.6s-1.3-1.6-1.7-2.6c-0.4-1.1-0.7-2.3-0.7-3.7s0.2-2.7 0.7-3.7c0.4-1.1 1-1.9 1.7-2.6s1.6-1.2 2.6-1.6 2.1-0.6 3.2-0.6 2.2 0.2 3.2 0.6 1.8 0.9 2.5 1.6 1.3 1.6 1.7 2.7 0.7 2.3 0.7 3.7c0 1.2-0.3 2.5-0.7 3.6z"/>
  <path id="XMLID_179_" d="m65.6 0.4h-3.8c-0.5 0-0.9 0.4-0.9 0.9v16.8c0 0.7-0.1 1.3-0.4 1.9-0.2 0.5-0.6 1-1 1.3-0.4 0.4-0.9 0.6-1.5 0.8s-1.6 0.3-2.3 0.3-1.8-0.1-2.4-0.3-1.1-0.5-1.5-0.8-0.7-0.8-1-1.3c-0.2-0.5-0.4-1.2-0.4-1.9v-16.8c0-0.5-0.4-0.9-0.9-0.9h-3.8c-0.5 0-0.9 0.4-0.9 0.9v16.9c0 1.6 0.3 3 0.9 4.2s1.4 2.2 2.4 3.1c1 0.8 2.2 1.5 3.5 1.9s2.7 0.6 4.1 0.6 2.8-0.2 4.1-0.6 2.5-1.1 3.4-1.9c1-0.8 1.8-1.9 2.3-3.1 0.6-1.2 0.9-2.6 0.9-4.2v-16.9c0.1-0.5-0.3-0.9-0.8-0.9z"/>
  <path id="XMLID_177_" d="m92.4 26.1-6.2-7.7s5-1.8 5-8.2c0-1.3-0.2-2.6-0.7-3.8-0.4-1.2-1.1-2.3-2-3.2s-1.9-1.6-3.1-2.1-2.6-0.8-4.1-0.8h-10c-0.5 0-0.9 0.4-0.9 0.9v25.4c0 0.5 0.4 0.9 0.9 0.9h3.8c0.5 0 0.9-0.4 0.9-0.9v-20.6h5.6c0.6 0 1.2 0.1 1.6 0.3 0.5 0.2 0.9 0.5 1.3 0.9 0.3 0.4 0.6 0.8 0.8 1.3s0.3 1.1 0.3 1.8c0 0.6-0.1 1.2-0.3 1.7s-0.5 1-0.8 1.4c-0.4 0.4-0.8 0.6-1.2 0.8-0.5 0.2-1.3 0.3-3 0.3h-2.4s-0.8 0.4-0.5 1l8.8 11.6c0.2 0.2 0.4 0.4 0.7 0.4h4.9c0.8 0.1 1.3-0.6 0.6-1.4z"/>
  <path id="XMLID_175_" d="m221.3 26.1-6.2-7.7s5-1.8 5-8.2c0-1.3-0.2-2.6-0.7-3.8-0.4-1.2-1.1-2.3-2-3.2s-1.9-1.6-3.1-2.1-2.6-0.8-4.1-0.8h-10.1c-0.5 0-0.9 0.4-0.9 0.9v25.4c0 0.5 0.4 0.9 0.9 0.9h3.8c0.5 0 0.9-0.4 0.9-0.9v-20.7h5.6c0.6 0 1.2 0.1 1.6 0.3 0.5 0.2 0.9 0.5 1.3 0.9 0.3 0.4 0.6 0.8 0.8 1.3s0.3 1.1 0.3 1.8c0 0.6-0.1 1.2-0.3 1.7s-0.5 1-0.8 1.4c-0.4 0.4-0.8 0.6-1.2 0.8-0.5 0.2-1.3 0.3-3 0.3h-2.4c-0.5 0-0.8 0.4-0.5 1l8.8 11.6c0.2 0.2 0.4 0.4 0.7 0.4h4.9c0.9 0.2 1.3-0.5 0.7-1.3z"/>
 </g>
</svg>
